#!OML:ASF H:\LiuWeirdWalks\Patient Classification 1\Patient 1\Session 1\male.ASF
:FULLY-SPECIFIED
:DEGREES
234
root 1.33944 17.6956 -27.4724 7.18235 9.70504 -3.38098
lowerback 6.88448 0.0570195 -6.79839
upperback -0.637108 -0.450889 0.957543
thorax -4.47933 -0.0450502 4.8776
lowerneck -12.4736 -0.0860267 8.39949
upperneck 21.2676 -1.0255 -4.05275
head 8.62232 -0.225252 -2.89174
rclavicle -1.04362e-014 1.43125e-014
rhumerus -35.7729 -5.81557 -80.2958
rradius 34.1965
rwrist -9.17558
rhand -14.4413 -3.92099
rfingers 7.12502
rthumb 11.7036 -33.5741
lclavicle -1.04362e-014 1.43125e-014
lhumerus -33.9588 -2.24328 83.9812
lradius 31.823
lwrist 10.2448
lhand -12.3666 1.14384
lfingers 7.12502
lthumb 13.7037 30.6726
rfemur -20.8047 -10.9717 15.7408
rtibia 67.2841
rfoot 8.32768 -11.8245
rtoes -1.38145
lfemur -18.2584 -2.62329 -21.5158
ltibia 34.6379
lfoot -17.8918 13.5082
ltoes -3.95251
235
root 1.33902 17.6873 -27.4567 7.308 9.60571 -3.33249
lowerback 6.92863 -0.0123254 -6.84034
upperback -0.619649 -0.54536 1.05148
thorax -4.4722 -0.0903949 5.01082
lowerneck -12.5659 0.115573 8.44825
upperneck 21.1934 -0.709558 -4.30237
head 8.63298 -0.100934 -2.9511
rclavicle 1.05356e-014 -2.22639e-014
rhumerus -35.6326 -5.33543 -80.309
rradius 34.1792
rwrist -9.227
rhand -14.4076 -3.86644
rfingers 7.12502
rthumb 11.7361 -33.5177
lclavicle 1.05356e-014 -2.22639e-014
lhumerus -34.1636 -1.90651 84.0437
lradius 32.1462
lwrist 10.3446
lhand -12.3492 1.06425
lfingers 7.12502
lthumb 13.7205 30.5919
rfemur -20.9285 -10.9712 15.7181
rtibia 67.417
rfoot 8.05671 -11.8399
rtoes -1.37319
lfemur -18.4112 -2.90979 -21.5961
ltibia 34.8295
lfoot -17.8996 14.0435
ltoes -3.7415
236
root 1.33838 17.6784 -27.4404 7.42974 9.48246 -3.28386
lowerback 6.97709 -0.0806517 -6.89247
upperback -0.599072 -0.639397 1.1496
thorax -4.4637 -0.135392 5.15439
lowerneck -12.6486 0.325484 8.50484
upperneck 21.1068 -0.380214 -4.56579
head 8.63968 0.0286855 -3.01451
rclavicle -1.04362e-014 -1.03368e-014
rhumerus -35.4705 -4.83276 -80.3263
rradius 34.157
rwrist -9.28006
rhand -14.3775 -3.82329
rfingers 7.12502
rthumb 11.765 -33.4729
lclavicle -1.04362e-014 -1.03368e-014
lhumerus -34.3688 -1.55183 84.1074
lradius 32.4678
lwrist 10.4244
lhand -12.3407 0.974496
lfingers 7.12502
lthumb 13.7287 30.5016
rfemur -21.0538 -10.9545 15.6962
rtibia 67.5664
rfoot 7.73665 -11.8577
rtoes -1.39425
lfemur -18.5603 -3.13813 -21.6724
ltibia 35.0283
lfoot -17.9303 14.5223
ltoes -3.54836
237
root 1.33738 17.6691 -27.4235 7.54706 9.34241 -3.23874
lowerback 7.03123 -0.114885 -6.93307
upperback -0.580491 -0.688606 1.2234
thorax -4.46677 -0.158271 5.26131
lowerneck -12.6892 0.47936 8.54433
upperneck 20.9949 -0.134833 -4.77024
head 8.62535 0.1235 -3.06282
rclavicle 8.34896e-015 4.77083e-015
rhumerus -35.3269 -4.44084 -80.3355
rradius 34.1383
rwrist -9.3207
rhand -14.3544 -3.80087
rfingers 7.12502
rthumb 11.7873 -33.4492
lclavicle 8.34896e-015 4.77083e-015
lhumerus -34.56 -1.31772 84.1819
lradius 32.7815
lwrist 10.5074
lhand -12.3387 0.888779
lfingers 7.12502
lthumb 13.7306 30.4158
rfemur -21.1796 -10.9282 15.6807
rtibia 67.7318
rfoot 7.37803 -11.8855
rtoes -1.44978
lfemur -18.7077 -3.3176 -21.7407
ltibia 35.2358
lfoot -17.9797 14.9518
ltoes -3.37823
238
root 1.33597 17.6594 -27.4062 7.66119 9.19583 -3.19712
lowerback 7.09176 -0.0905409 -6.94758
upperback -0.568189 -0.660255 1.25079
thorax -4.49172 -0.142878 5.29646
lowerneck -12.6751 0.529323 8.54931
upperneck 20.8571 -0.0468583 -4.86211
head 8.58175 0.153338 -3.08272
rclavicle 7.65321e-015 -2.22639e-014
rhumerus -35.2327 -4.26493 -80.3266
rradius 34.1292
rwrist -9.33881
rhand -14.3404 -3.80078
rfingers 7.12502
rthumb 11.8008 -33.4483
lclavicle 7.65321e-015 -2.22639e-014
lhumerus -34.727 -1.31004 84.2757
lradius 33.0833
lwrist 10.6142
lhand -12.3403 0.818284
lfingers 7.12502
lthumb 13.7291 30.3454
rfemur -21.3065 -10.9027 15.6726
rtibia 67.9139
rfoot 6.99646 -11.9294
rtoes -1.53659
lfemur -18.8572 -3.46106 -21.8012
ltibia 35.4531
lfoot -18.0414 15.3408
ltoes -3.23221
239
root 1.33427 17.6491 -27.3886 7.77509 9.05526 -3.15455
lowerback 7.15964 0.0131201 -6.92326
upperback -0.56583 -0.526745 1.21024
thorax -4.54719 -0.0757014 5.2266
lowerneck -12.6093 0.433679 8.50654
upperneck 20.7082 -0.181396 -4.7936
head 8.50946 0.0915139 -3.06293
rclavicle -1.19271e-015 -1.35174e-014
rhumerus -35.2148 -4.40067 -80.2904
rradius 34.1357
rwrist -9.32388
rhand -14.3372 -3.81933
rfingers 7.12502
rthumb 11.804 -33.4667
lclavicle -1.19271e-015 -1.35174e-014
lhumerus -34.8611 -1.62379 84.3962
lradius 33.3723
lwrist 10.7635
lhand -12.3419 0.774643
lfingers 7.12502
lthumb 13.7275 30.3018
rfemur -21.4357 -10.8928 15.6668
rtibia 68.1142
rfoot 6.60902 -11.9896
rtoes -1.65233
lfemur -19.0124 -3.58613 -21.8595
ltibia 35.6805
lfoot -18.1097 15.6985
ltoes -3.10471
240
root 1.33246 17.6382 -27.371 7.89211 8.93425 -3.10373
lowerback 7.23692 0.16408 -6.87231
upperback -0.571586 -0.331046 1.12131
thorax -4.6252 0.0220008 5.08345
lowerneck -12.5169 0.242347 8.43423
upperneck 20.5578 -0.462994 -4.61696
head 8.42239 -0.0308356 -3.01647
rclavicle -2.67365e-014 -6.36111e-015
rhumerus -35.244 -4.74992 -80.2367
rradius 34.1512
rwrist -9.28272
rhand -14.3444 -3.85355
rfingers 7.12502
rthumb 11.797 -33.5013
lclavicle -2.67365e-014 -6.36111e-015
lhumerus -34.975 -2.15167 84.5336
lradius 33.6554
lwrist 10.9499
lhand -12.341 0.760117
lfingers 7.12502
lthumb 13.7284 30.2872
rfemur -21.5673 -10.9141 15.6542
rtibia 68.3336
rfoot 6.23112 -12.0622
rtoes -1.78175
lfemur -19.1761 -3.71164 -21.9242
ltibia 35.9165
lfoot -18.1801 16.0323
ltoes -2.98939
241
root 1.33087 17.6267 -27.3533 8.01454 8.84162 -3.03891
lowerback 7.3242 0.32796 -6.80808
upperback -0.581767 -0.119032 1.00757
thorax -4.71474 0.127477 4.90415
lowerneck -12.4275 0.0101646 8.34726
upperneck 20.4206 -0.808458 -4.38896
head 8.33744 -0.179385 -2.95674
rclavicle 3.53837e-014 7.95139e-016
rhumerus -35.2863 -5.19915 -80.1756
rradius 34.1692
rwrist -9.2256
rhand -14.3603 -3.89497
rfingers 7.12502
rthumb 11.7817 -33.5436
lclavicle 3.53837e-014 7.95139e-016
lhumerus -35.0807 -2.77052 84.6779
lradius 33.9385
lwrist 11.1586
lhand -12.3372 0.769673
lfingers 7.12502
lthumb 13.732 30.2966
rfemur -21.7001 -10.9772 15.6263
rtibia 68.572
rfoot 5.87547 -12.1392
rtoes -1.91374
lfemur -19.3482 -3.85491 -22.0028
ltibia 36.1591
lfoot -18.2498 16.3519
ltoes -2.88118
242
root 1.32985 17.6146 -27.3353 8.1436 8.78007 -2.95753
lowerback 7.41968 0.466974 -6.74649
upperback -0.591518 0.059184 0.89826
thorax -4.80264 0.21605 4.73415
lowerneck -12.3653 -0.199203 8.26302
upperneck 20.301 -1.12087 -4.17733
head 8.26685 -0.314012 -2.89997
rclavicle 2.16675e-014 2.70347e-014
rhumerus -35.3034 -5.61235 -80.1205
rradius 34.1841
rwrist -9.16679
rhand -14.3831 -3.93866
rfingers 7.12502
rthumb 11.7597 -33.5885
lclavicle 2.16675e-014 2.70347e-014
lhumerus -35.1892 -3.33443 84.8176
lradius 34.2239
lwrist 11.3665
lhand -12.3314 0.795278
lfingers 7.12502
lthumb 13.7376 30.3218
rfemur -21.8321 -11.0858 15.5774
rtibia 68.8284
rfoot 5.55028 -12.2119
rtoes -2.03962
lfemur -19.527 -4.02808 -22.0995
ltibia 36.4061
lfoot -18.3179 16.6671
ltoes -2.7804
243
root 1.32972 17.6021 -27.3169 8.27917 8.74511 -2.86353
lowerback 7.51956 0.555765 -6.69705
upperback -0.597454 0.170524 0.817333
thorax -4.87946 0.271578 4.6082
lowerneck -12.3376 -0.34232 8.18703
upperneck 20.1947 -1.33253 -4.02823
head 8.21401 -0.406916 -2.85595
rclavicle -2.18663e-015 -1.03368e-014
rhumerus -35.2688 -5.8893 -80.0803
rradius 34.1922
rwrist -9.11799
rhand -14.4114 -3.98047
rfingers 7.12502
rthumb 11.7324 -33.6319
lclavicle -2.18663e-015 -1.03368e-014
lhumerus -35.3083 -3.73527 84.9458
lradius 34.5112
lwrist 11.55
lhand -12.3253 0.822333
lfingers 7.12502
lthumb 13.7435 30.3484
rfemur -21.9627 -11.2337 15.51
rtibia 69.1006
rfoot 5.26237 -12.2737
rtoes -2.15244
lfemur -19.7107 -4.23383 -22.2117
ltibia 36.6563
lfoot -18.3858 16.9863
ltoes -2.69092
244
root 1.33063 17.5892 -27.2978 8.42039 8.72678 -2.76468
lowerback 7.61726 0.58075 -6.66468
upperback -0.597245 0.197916 0.782545
thorax -4.93767 0.2858 4.55021
lowerneck -12.3446 -0.39117 8.12401
upperneck 20.0938 -1.39923 -3.97442
head 8.17796 -0.440086 -2.83207
rclavicle 4.01545e-014 -1.03368e-014
rhumerus -35.1675 -5.96332 -80.06
rradius 34.1924
rwrist -9.091
rhand -14.4436 -4.01777
rfingers 7.12502
rthumb 11.7013 -33.671
lclavicle 4.01545e-014 -1.03368e-014
lhumerus -35.4404 -3.90259 85.0596
lradius 34.7952
lwrist 11.6875
lhand -12.3218 0.835597
lfingers 7.12502
lthumb 13.7469 30.3615
rfemur -22.0926 -11.407 15.4317
rtibia 69.3867
rfoot 5.01582 -12.3222
rtoes -2.25342
lfemur -19.898 -4.46491 -22.332
ltibia 36.9096
lfoot -18.4573 17.3138
ltoes -2.61648
245
root 1.33253 17.5761 -27.2778 8.56588 8.71572 -2.67043
lowerback 7.70948 0.552893 -6.64039
upperback -0.592696 0.156875 0.790855
thorax -4.97963 0.266328 4.5504
lowerneck -12.3736 -0.358081 8.07396
upperneck 19.9895 -1.33925 -4.00662
head 8.15195 -0.42117 -2.82675
rclavicle -1.49089e-014 -7.95139e-016
rhumerus -35.0138 -5.8586 -80.056
rradius 34.1909
rwrist -9.08888
rhand -14.4775 -4.04709
rfingers 7.12502
rthumb 11.6687 -33.7022
lclavicle -1.49089e-014 -7.95139e-016
lhumerus -35.581 -3.8657 85.1627
lradius 35.0694
lwrist 11.7728
lhand -12.3208 0.822044
lfingers 7.12502
lthumb 13.7478 30.3479
rfemur -22.2229 -11.5904 15.3541
rtibia 69.6846
rfoot 4.81177 -12.3583
rtoes -2.3457
lfemur -20.0884 -4.70919 -22.4503
ltibia 37.1668
lfoot -18.5378 17.6479
ltoes -2.55981
246
root 1.3352 17.5629 -27.2569 8.71439 8.70355 -2.58789
lowerback 7.79494 0.485835 -6.61661
upperback -0.587825 0.0659671 0.835887
thorax -5.01112 0.222386 4.59575
lowerneck -12.4039 -0.259109 8.04099
upperneck 19.866 -1.17616 -4.11526
head 8.12551 -0.360153 -2.83924
rclavicle 1.98785e-015 2.06736e-014
rhumerus -34.8286 -5.60897 -80.0637
rradius 34.1934
rwrist -9.11428
rhand -14.5114 -4.06469
rfingers 7.12502
rthumb 11.636 -33.7216
lclavicle 1.98785e-015 2.06736e-014
lhumerus -35.7302 -3.66681 85.259
lradius 35.3303
lwrist 11.807
lhand -12.322 0.780024
lfingers 7.12502
lthumb 13.7467 30.3059
rfemur -22.3554 -11.7694 15.2873
rtibia 69.9936
rfoot 4.65086 -12.3852
rtoes -2.42793
lfemur -20.2825 -4.95118 -22.5578
ltibia 37.4291
lfoot -18.6322 17.9822
ltoes -2.51946
247
root 1.33831 17.5496 -27.2352 8.86526 8.68561 -2.51989
lowerback 7.87362 0.410132 -6.57934
upperback -0.587235 -0.0340544 0.894473
thorax -5.04198 0.17387 4.64905
lowerneck -12.4129 -0.138601 8.02557
upperneck 19.7114 -0.978572 -4.25815
head 8.08692 -0.285202 -2.86184
rclavicle -2.13694e-014 0
rhumerus -34.6486 -5.31775 -80.0722
rradius 34.2087
rwrist -9.16089
rhand -14.5423 -4.06452
rfingers 7.12502
rthumb 11.6061 -33.7231
lclavicle -2.13694e-014 0
lhumerus -35.8801 -3.42075 85.3572
lradius 35.5747
lwrist 11.804
lhand -12.3246 0.715061
lfingers 7.12502
lthumb 13.7442 30.2411
rfemur -22.4914 -11.9336 15.2371
rtibia 70.3135
rfoot 4.53417 -12.4044
rtoes -2.49663
lfemur -20.4809 -5.18125 -22.6496
ltibia 37.6977
lfoot -18.7439 18.3102
ltoes -2.48737
